# xmcd CD database file
#
# Track frame offsets:
#	150
#	16242
#	35090
#	51342
#	64270
#	80135
#	97240
#	115322
#	132577
#	147705
#	165912
#	185940
#	203408
#	237121
#
# Disc length: 3509 seconds
#
# Revision: 3
# Processed by: cddbd v1.5.2PL0 Copyright (c) Steve Scherf et al.
# Submitted via: CDex 1.51
#
DISCID=d40db30e
DTITLE=KT Tunstall - Eye To The Telescope
DYEAR=2006
DGENRE=Rock
TTITLE0=Other Side Of The World
TTITLE1=Another Place To Fall
TTITLE2=Under The Weather
TTITLE3=Black Horse And The Cherry Tree
TTITLE4=Miniature Disasters
TTITLE5=Silent Sea
TTITLE6=Universe and U
TTITLE7=False Alarm
TTITLE8=Suddenly I See
TTITLE9=Stoppin' The Love
TTITLE10=Heal Over
TTITLE11=Through The Dark
TTITLE12=Boo Hoo (Acoustic Extravaganza Version)
TTITLE13=Suddenly I See (Video)
EXTD=YEAR: 2006
EXTT0=
EXTT1=
EXTT2=
EXTT3=
EXTT4=
EXTT5=
EXTT6=
EXTT7=
EXTT8=
EXTT9=
EXTT10=
EXTT11=
EXTT12=
EXTT13=
PLAYORDER=
